<!-- Copyright © 2015 MODULUS Sp. z o. o. / FUTURAMO™ --><svg xmlns="http://www.w3.org/2000/svg" x="0px" y="0px" width="256px" height="256px" viewBox="0 0 64 64"><rect x="0" y="0" width="64" height="64" rx="0" ry="0" fill="#FF8502"></rect><rect x="4" y="4" width="56" height="56" rx="0" ry="0" fill="#FF8502"></rect><path transform="translate(16, 16)" fill="#fff" d="M24,11V0H6v11c0,2.845,1.346,5.351,3.407,7H8v8h4c0-2.209,1.791-4,4-4s4,1.791,4,4s-1.791,4-4,4 c-1.477,0-2.752-0.81-3.445-2H8c-1.104,0-2-0.896-2-2v-8H4v14h22V18h-5.407C22.654,16.351,24,13.845,24,11z M12,4h2V2h2v2h2v2h-2v2 h-2V6h-2V4z M8,11v-1h14v1c0,3.86-3.141,7-7,7S8,14.86,8,11z M16,28c-1.104,0-2-0.897-2-2s0.896-2,2-2s2,0.897,2,2S17.104,28,16,28z "></path></svg>
